<svg xmlns="http://www.w3.org/2000/svg" viewBox="0 0 24 24"><g fill="none"><path d="m12.594 23.258l-.012.002l-.071.035l-.02.004l-.014-.004l-.071-.036q-.016-.004-.024.006l-.004.01l-.017.428l.005.02l.01.013l.104.074l.015.004l.012-.004l.104-.074l.012-.016l.004-.017l-.017-.427q-.004-.016-.016-.018m.264-.113l-.014.002l-.184.093l-.01.01l-.003.011l.018.43l.005.012l.008.008l.201.092q.019.005.029-.008l.004-.014l-.034-.614q-.005-.019-.02-.022m-.715.002a.02.02 0 0 0-.027.006l-.006.014l-.034.614q.001.018.017.024l.015-.002l.201-.093l.01-.008l.003-.011l.018-.43l-.003-.012l-.01-.01z"/><path fill="currentColor" d="M12 2c5.523 0 10 4.477 10 10s-4.477 10-10 10S2 17.523 2 12S6.477 2 12 2m0 2a8 8 0 1 0 0 16a8 8 0 0 0 0-16M9.243 6.212a5.8 5.8 0 0 1 1.17.553A7 7 0 0 1 12 6.588c.548 0 1.08.061 1.586.177a5.8 5.8 0 0 1 1.17-.553l.284-.092c.393-.117.83-.193 1.197-.01c.17.085.312.218.414.378c.208.326.283.746.329 1.123a4.2 4.2 0 0 1-.033 1.27c.447.635.72 1.387.72 2.207c0 1.845-1.315 3.262-3.005 3.976q.058.22.078.455l.01.246l-.029 2.745a1 1 0 1 1-2-.02l.029-2.74a.74.74 0 0 0-.168-.468l-.068-.073c-.604-.57-.296-1.561.493-1.719c1.74-.347 2.66-1.446 2.66-2.402c0-.447-.182-.897-.557-1.306a1 1 0 0 1-.23-.94l.04-.123c.053-.127.082-.285.09-.456a3.3 3.3 0 0 0-.62.375a1.02 1.02 0 0 1-.913.167A5 5 0 0 0 12 8.588c-.53 0-1.029.079-1.479.217a1.02 1.02 0 0 1-.913-.166a3.3 3.3 0 0 0-.621-.376q.009.195.055.356l.036.101c.149.361.075.776-.189 1.063c-.375.409-.556.858-.556 1.305c0 .956.92 2.055 2.66 2.402c.751.15 1.067 1.057.573 1.635l-.08.084a.75.75 0 0 0-.229.44l-.007.116l-.029 2.745a1 1 0 1 1-2-.02l.005-.457a2.7 2.7 0 0 1-1.046-.202a2.6 2.6 0 0 1-.985-.757a2 2 0 0 1-.13-.188l-.141-.234c-.123-.2-.26-.392-.411-.44a.75.75 0 1 1 .474-1.423c.437.145.715.458.894.69c.16.208.298.433.466.635c.137.164.265.271.419.336c.106.045.256.084.476.083l.008-.784q0-.356.088-.685c-1.69-.714-3.005-2.131-3.005-3.976c0-.82.272-1.57.718-2.205a4.2 4.2 0 0 1-.033-1.271c.046-.377.12-.798.329-1.124c.102-.16.244-.292.414-.378c.366-.183.804-.107 1.197.01z"/></g></svg>