<svg width="252" height="142" viewBox="0 0 252 142" fill="none" xmlns="http://www.w3.org/2000/svg">
    <rect width="252" height="142" fill="#F5F5F5"/>
    <rect width="252" height="142" fill="white"/>
    <a href="https://catcodeme.github.io/index.xml" target="_blank" rel="noopener noreferrer">
        <path d="M42.3333 47.1667C46.7094 47.1667 50.9062 48.905 54.0006 51.9994C57.0949 55.0937 58.8333 59.2906 58.8333 63.6667M42.3333 34.3333C50.113 34.3333 57.5741 37.4238 63.0751 42.9249C68.5762 48.4259 71.6667 55.887 71.6667 63.6667M46 61.8333C46 62.8459 45.1792 63.6667 44.1667 63.6667C43.1541 63.6667 42.3333 62.8459 42.3333 61.8333C42.3333 60.8208 43.1541 60 44.1667 60C45.1792 60 46 60.8208 46 61.8333Z" stroke="#1E1E1E" stroke-width="4" stroke-linecap="round" stroke-linejoin="round"/>
    </a>
    <a href="https://github.com/CatCodeMe" target="_blank" rel="noopener noreferrer">
        <g clip-path="url(#clip0_0_1)">
            <path d="M161.5 61.8333C152.333 64.5833 152.333 57.25 148.667 56.3333M174.333 67.3333V60.2383C174.402 59.3641 174.284 58.4853 173.987 57.6603C173.69 56.8353 173.22 56.0829 172.61 55.4533C178.367 54.8117 184.417 52.63 184.417 42.62C184.416 40.0603 183.432 37.5989 181.667 35.745C182.502 33.5056 182.443 31.0303 181.502 28.8333C181.502 28.8333 179.338 28.1917 174.333 31.5467C170.131 30.4078 165.702 30.4078 161.5 31.5467C156.495 28.1917 154.332 28.8333 154.332 28.8333C153.39 31.0303 153.331 33.5056 154.167 35.745C152.389 37.6126 151.403 40.0963 151.417 42.675C151.417 52.6117 157.467 54.7933 163.223 55.5083C162.62 56.1316 162.155 56.8749 161.858 57.6898C161.561 58.5048 161.439 59.3731 161.5 60.2383V67.3333" stroke="#1E1E1E" stroke-width="4" stroke-linecap="round" stroke-linejoin="round"/>
        </g>
    </a>
    <defs>
        <clipPath id="clip0_0_1">
            <rect width="44" height="44" fill="white" transform="translate(145 27)"/>
        </clipPath>
    </defs>
</svg>