<svg width="252" height="142" viewBox="0 0 252 142" fill="none" xmlns="http://www.w3.org/2000/svg">
<rect width="252" height="142" fill="#FAF8F8"/>
<rect width="252" height="142" fill="white"/>
<g filter="url(#filter0_d_0_1)">
<path d="M17.32 71.54C15.928 71.54 14.632 71.192 13.432 70.496C12.256 69.8 11.32 68.864 10.624 67.688C9.928 66.488 9.58 65.192 9.58 63.8C9.58 62.216 10.024 60.776 10.912 59.48C11.8 58.184 12.964 57.248 14.404 56.672C13.468 56.144 12.712 55.412 12.136 54.476C11.56 53.516 11.272 52.484 11.272 51.38C11.272 50.276 11.536 49.268 12.064 48.356C12.616 47.42 13.36 46.688 14.296 46.16C15.232 45.608 16.24 45.332 17.32 45.332C18.424 45.332 19.432 45.608 20.344 46.16C21.28 46.688 22.012 47.42 22.54 48.356C23.092 49.268 23.368 50.276 23.368 51.38C23.368 52.508 23.08 53.54 22.504 54.476C21.952 55.412 21.196 56.144 20.236 56.672C21.652 57.248 22.804 58.184 23.692 59.48C24.604 60.776 25.06 62.216 25.06 63.8C25.06 65.192 24.712 66.488 24.016 67.688C23.32 68.864 22.372 69.8 21.172 70.496C19.996 71.192 18.712 71.54 17.32 71.54ZM12.604 51.38C12.604 52.22 12.808 53.012 13.216 53.756C13.648 54.476 14.224 55.052 14.944 55.484C15.688 55.892 16.48 56.096 17.32 56.096C18.16 56.096 18.94 55.892 19.66 55.484C20.404 55.052 20.98 54.476 21.388 53.756C21.82 53.012 22.036 52.22 22.036 51.38C22.036 50.54 21.82 49.76 21.388 49.04C20.98 48.296 20.404 47.72 19.66 47.312C18.94 46.88 18.16 46.664 17.32 46.664C16.48 46.664 15.688 46.88 14.944 47.312C14.224 47.72 13.648 48.296 13.216 49.04C12.808 49.76 12.604 50.54 12.604 51.38ZM17.32 70.208C18.472 70.208 19.54 69.92 20.524 69.344C21.508 68.768 22.288 67.988 22.864 67.004C23.44 66.02 23.728 64.952 23.728 63.8C23.728 62.648 23.44 61.58 22.864 60.596C22.288 59.612 21.508 58.832 20.524 58.256C19.54 57.68 18.472 57.392 17.32 57.392C16.168 57.392 15.1 57.68 14.116 58.256C13.132 58.832 12.352 59.612 11.776 60.596C11.2 61.58 10.912 62.648 10.912 63.8C10.912 64.952 11.2 66.02 11.776 67.004C12.352 67.988 13.132 68.768 14.116 69.344C15.1 69.92 16.168 70.208 17.32 70.208ZM54.3004 61.532C54.3244 64.676 53.4244 67.136 51.6004 68.912C49.7764 70.664 47.2684 71.54 44.0764 71.54C42.1804 71.54 40.4284 71.108 38.8204 70.244C37.2364 69.38 35.9764 68.156 35.0404 66.572C34.1044 64.988 33.6364 63.164 33.6364 61.1V55.844C33.6364 53.804 34.0804 51.992 34.9684 50.408C35.8804 48.824 37.1164 47.6 38.6764 46.736C40.2604 45.848 42.0244 45.404 43.9684 45.404C47.1604 45.404 49.6564 46.28 51.4564 48.032C53.2804 49.76 54.2044 52.208 54.2284 55.376H47.7484C47.7244 54.152 47.3884 53.204 46.7404 52.532C46.1164 51.86 45.1924 51.524 43.9684 51.524C42.8644 51.524 41.9524 51.872 41.2324 52.568C40.5124 53.264 40.1524 54.248 40.1524 55.52V61.388C40.1524 62.66 40.5244 63.656 41.2684 64.376C42.0364 65.072 42.9724 65.42 44.0764 65.42C46.5964 65.42 47.8564 64.124 47.8564 61.532H54.3004ZM69.9329 45.944H71.3369L81.6329 71H80.1929L76.8089 62.72H64.4609L61.0409 71H59.6369L69.9329 45.944ZM65.0009 61.424H76.2689L70.6169 47.672L65.0009 61.424ZM107.381 45.944V47.276H97.9133V71H96.6173V47.276H87.1493V45.944H107.381ZM120.638 68.264C120.638 67.376 120.95 66.62 121.574 65.996C122.222 65.348 123.002 65.024 123.914 65.024C124.826 65.024 125.594 65.348 126.218 65.996C126.866 66.62 127.19 67.376 127.19 68.264C127.19 69.152 126.866 69.92 126.218 70.568C125.594 71.216 124.826 71.54 123.914 71.54C123.026 71.54 122.258 71.216 121.61 70.568C120.962 69.92 120.638 69.152 120.638 68.264ZM142.822 71V45.944H144.154V69.668H161.614V71H142.822ZM185.347 45.944V47.276H177.859V69.668H185.347V71H169.111V69.668H176.563V47.276H169.111V45.944H185.347ZM195.543 45.944H214.227V47.276H196.875V57.788H210.915V59.12H196.875V71H195.543V45.944ZM221.868 45.944H239.508V47.276H223.2V57.428H237.384V58.76H223.2V69.668H239.508V71H221.868V45.944Z" fill="#214257"/>
</g>
<g filter="url(#filter1_d_0_1)">
<path d="M149.672 127.632L149.96 124.98C149.96 124.764 149.904 124.584 149.792 124.44C149.68 124.296 149.5 124.224 149.252 124.224C149.004 124.224 148.792 124.324 148.616 124.524C148.448 124.716 148.324 124.972 148.244 125.292C148.188 125.748 148.104 126.416 147.992 127.296C147.88 128.168 147.808 128.736 147.776 129H146.18C146.756 124.096 147.104 121.084 147.224 119.964C147.392 119.9 147.62 119.868 147.908 119.868C148.532 119.868 148.844 120.052 148.844 120.42V120.492C148.708 121.748 148.564 122.852 148.412 123.804C148.836 123.42 149.316 123.228 149.852 123.228C150.388 123.228 150.812 123.364 151.124 123.636C151.436 123.908 151.592 124.252 151.592 124.668C151.592 124.78 151.568 124.988 151.52 125.292C151.336 126.492 151.244 127.196 151.244 127.404C151.244 127.78 151.368 127.968 151.616 127.968C151.824 127.968 152.044 127.832 152.276 127.56C152.516 127.28 152.708 126.852 152.852 126.276C153.124 126.564 153.288 126.792 153.344 126.96C152.928 128.352 152.192 129.048 151.136 129.048C150.64 129.048 150.272 128.896 150.032 128.592C149.792 128.288 149.672 127.968 149.672 127.632ZM157.713 123.348C157.385 125.94 157.221 127.32 157.221 127.488C157.221 127.808 157.337 127.968 157.569 127.968C157.777 127.968 158.001 127.828 158.241 127.548C158.489 127.26 158.685 126.832 158.829 126.264C159.093 126.552 159.253 126.776 159.309 126.936C159.125 127.712 158.833 128.26 158.433 128.58C158.033 128.9 157.621 129.06 157.197 129.06C156.501 129.06 156.033 128.792 155.793 128.256C155.377 128.792 154.821 129.06 154.125 129.06C153.549 129.06 153.105 128.916 152.793 128.628C152.481 128.34 152.325 127.964 152.325 127.5C152.325 127.388 152.345 127.192 152.385 126.912C152.569 125.424 152.709 124.24 152.805 123.36C153.053 123.272 153.281 123.228 153.489 123.228C153.697 123.228 153.853 123.236 153.957 123.252C154.061 123.268 154.161 123.328 154.257 123.432C154.353 123.536 154.401 123.684 154.401 123.876L154.005 126.936C153.989 127.032 153.981 127.12 153.981 127.2C153.981 127.672 154.197 127.908 154.629 127.908C155.029 127.908 155.361 127.712 155.625 127.32C155.625 127.232 155.633 127.092 155.649 126.9L156.045 123.708C156.101 123.572 156.221 123.46 156.405 123.372C156.589 123.276 156.817 123.228 157.089 123.228C157.369 123.228 157.577 123.268 157.713 123.348ZM160.051 129.084C159.563 129.084 159.179 128.948 158.899 128.676C158.619 128.396 158.479 128.016 158.479 127.536C158.479 127.408 158.695 125.508 159.127 121.836C159.239 120.892 159.539 120.296 160.027 120.048C160.251 119.928 160.519 119.868 160.831 119.868C161.887 119.868 162.415 120.356 162.415 121.332C162.415 121.412 162.411 121.496 162.403 121.584C162.323 122.656 161.651 123.748 160.387 124.86C160.347 125.252 160.303 125.632 160.255 126C160.159 126.824 160.111 127.28 160.111 127.368C160.111 127.784 160.291 127.992 160.651 127.992C161.043 127.992 161.407 127.768 161.743 127.32C162.087 126.864 162.351 126.284 162.535 125.58C162.607 125.604 162.707 125.672 162.835 125.784C162.963 125.888 163.051 125.98 163.099 126.06C162.971 126.724 162.683 127.36 162.235 127.968C162.011 128.28 161.727 128.536 161.383 128.736C160.991 128.968 160.547 129.084 160.051 129.084ZM160.519 123.66C161.255 122.852 161.623 122.128 161.623 121.488C161.623 121.104 161.479 120.912 161.191 120.912C161.007 120.928 160.883 121.048 160.819 121.272C160.763 121.496 160.707 121.86 160.651 122.364C160.603 122.868 160.571 123.18 160.555 123.3L160.519 123.66ZM164.043 120.168C164.227 119.976 164.451 119.88 164.715 119.88C164.979 119.88 165.203 119.976 165.387 120.168C165.579 120.352 165.675 120.576 165.675 120.84C165.675 121.104 165.579 121.328 165.387 121.512C165.203 121.696 164.979 121.788 164.715 121.788C164.451 121.788 164.227 121.696 164.043 121.512C163.859 121.328 163.767 121.104 163.767 120.84C163.767 120.576 163.859 120.352 164.043 120.168ZM162.375 132.672C161.999 132.672 161.667 132.552 161.379 132.312C161.083 132.08 160.935 131.676 160.935 131.1C160.935 129.948 161.631 128.92 163.023 128.016C163.079 127.536 163.247 126.092 163.527 123.684C163.767 123.388 164.143 123.24 164.655 123.24C164.943 123.24 165.139 123.268 165.243 123.324L164.307 130.584C164.227 131.28 164.031 131.8 163.719 132.144C163.415 132.496 162.967 132.672 162.375 132.672ZM161.703 130.98C161.703 131.196 161.747 131.36 161.835 131.472C161.923 131.592 162.035 131.652 162.171 131.652C162.427 131.652 162.591 131.388 162.663 130.86L162.915 128.94C162.107 129.58 161.703 130.26 161.703 130.98ZM172.211 126.288C172.259 126.488 172.283 126.648 172.283 126.768C172.283 127.624 172.099 128.22 171.731 128.556C171.371 128.892 170.883 129.06 170.267 129.06C169.827 129.06 169.307 128.988 168.707 128.844C168.107 128.692 167.687 128.616 167.447 128.616C167.431 128.616 167.419 128.616 167.411 128.616C166.923 128.616 166.495 128.744 166.127 129L165.683 127.944H165.671C165.863 127.696 166.247 127.316 166.823 126.804C167.399 126.284 167.747 125.968 167.867 125.856C167.995 125.736 168.171 125.584 168.395 125.4C168.619 125.208 168.795 125.052 168.923 124.932C169.059 124.812 169.223 124.648 169.415 124.44C169.607 124.224 169.759 124.024 169.871 123.84C170.207 123.296 170.375 122.8 170.375 122.352C170.375 121.904 170.259 121.568 170.027 121.344C169.795 121.12 169.531 121.004 169.235 120.996C168.843 121.012 168.547 121.128 168.347 121.344C168.147 121.56 168.043 121.788 168.035 122.028C168.027 122.268 168.043 122.448 168.083 122.568H166.451C166.379 121.896 166.539 121.328 166.931 120.864C167.475 120.2 168.263 119.868 169.295 119.868C170.159 119.868 170.863 120.084 171.407 120.516C171.951 120.948 172.223 121.564 172.223 122.364C172.223 123.124 171.891 123.88 171.227 124.632C171.003 124.88 170.839 125.052 170.735 125.148C169.951 125.876 169.123 126.56 168.251 127.2C168.403 127.224 168.739 127.288 169.259 127.392C169.819 127.496 170.175 127.548 170.327 127.548C170.655 127.548 170.903 127.44 171.071 127.224C171.247 127.008 171.387 126.696 171.491 126.288H172.211ZM176.474 129C175.402 129 174.61 128.632 174.098 127.896C173.586 127.16 173.322 126.188 173.306 124.98C173.306 124.78 173.314 124.616 173.33 124.488C173.45 123.04 173.842 121.908 174.506 121.092C175.17 120.276 176.062 119.868 177.182 119.868C177.198 119.868 177.21 119.868 177.218 119.868C178.13 119.884 178.866 120.232 179.426 120.912C179.986 121.592 180.278 122.584 180.302 123.888C180.302 124.968 180.094 125.944 179.678 126.816C179.342 127.496 178.89 128.032 178.322 128.424C177.762 128.808 177.146 129 176.474 129ZM178.394 123.552C178.394 121.864 177.97 121.02 177.122 121.02C176.546 121.02 176.098 121.356 175.778 122.028C175.466 122.7 175.266 123.724 175.178 125.1C175.21 126.14 175.318 126.844 175.502 127.212C175.582 127.38 175.706 127.528 175.874 127.656C176.05 127.8 176.262 127.872 176.51 127.872C176.998 127.872 177.41 127.564 177.746 126.948C178.09 126.324 178.302 125.404 178.382 124.188C178.39 123.964 178.394 123.752 178.394 123.552ZM186.54 129H180.984L181.152 127.704H183.072L183.816 122.232L181.608 122.364L181.74 121.284C183.212 120.908 184.088 120.436 184.368 119.868H185.832L184.812 127.704H186.684L186.54 129ZM190.701 125.724C189.765 125.724 189.065 125.424 188.601 124.824C188.201 124.288 188.001 123.668 188.001 122.964C188.001 122.892 188.009 122.776 188.025 122.616C188.129 121.736 188.461 121.052 189.021 120.564C189.589 120.068 190.309 119.82 191.181 119.82C191.661 119.82 192.089 119.896 192.465 120.048C192.849 120.2 193.161 120.4 193.401 120.648C193.649 120.896 193.853 121.188 194.013 121.524C194.309 122.148 194.457 122.852 194.457 123.636C194.457 123.876 194.445 124.104 194.421 124.32C194.277 125.792 193.845 126.94 193.125 127.764C192.413 128.58 191.413 128.996 190.125 129.012C189.677 129.012 189.269 128.96 188.901 128.856C188.533 128.744 188.257 128.632 188.073 128.52C187.897 128.408 187.701 128.256 187.485 128.064L188.361 126.948C188.601 127.252 188.865 127.476 189.153 127.62C189.441 127.764 189.801 127.836 190.233 127.836C191.609 127.836 192.397 126.568 192.597 124.032C192.621 123.6 192.633 123.356 192.633 123.3C192.633 121.732 192.185 120.948 191.289 120.948C190.865 120.948 190.525 121.112 190.269 121.44C189.973 121.832 189.825 122.336 189.825 122.952C189.825 123.36 189.949 123.74 190.197 124.092C190.453 124.444 190.857 124.62 191.409 124.62C191.545 124.62 191.729 124.588 191.961 124.524C192.201 124.46 192.341 124.404 192.381 124.356L192.285 125.232C191.845 125.56 191.317 125.724 190.701 125.724ZM196.904 123.228C197.32 122.892 197.776 122.636 198.272 122.46C198.768 122.284 199.264 122.196 199.76 122.196C200.256 122.196 200.72 122.264 201.152 122.4C201.592 122.528 202 122.724 202.376 122.988C202.76 123.244 203.068 123.6 203.3 124.056C203.532 124.504 203.648 125.02 203.648 125.604C203.648 126.428 203.464 127.104 203.096 127.632C202.736 128.16 202.276 128.424 201.716 128.424C201.052 128.424 200.668 128.068 200.564 127.356C200.412 127.684 200.2 127.952 199.928 128.16C199.656 128.36 199.34 128.46 198.98 128.46C198.428 128.46 197.992 128.284 197.672 127.932C197.36 127.572 197.204 127.092 197.204 126.492C197.204 125.892 197.392 125.312 197.768 124.752C197.952 124.472 198.216 124.244 198.56 124.068C198.912 123.892 199.296 123.804 199.712 123.804C200.136 123.804 200.536 123.864 200.912 123.984C201.048 123.936 201.2 123.912 201.368 123.912C201.544 123.912 201.7 123.952 201.836 124.032C201.58 125.744 201.452 126.796 201.452 127.188C201.452 127.484 201.592 127.632 201.872 127.632C202.12 127.632 202.328 127.456 202.496 127.104C202.664 126.744 202.748 126.272 202.748 125.688C202.748 124.848 202.484 124.196 201.956 123.732C201.436 123.268 200.704 123.036 199.76 123.036C198.824 123.036 198.04 123.328 197.408 123.912C196.776 124.496 196.46 125.328 196.46 126.408C196.46 127.192 196.732 127.844 197.276 128.364C197.82 128.876 198.488 129.132 199.28 129.132C199.648 129.132 199.908 129.108 200.06 129.06C200.22 129.012 200.348 128.972 200.444 128.94L200.624 128.88C200.656 128.896 200.688 128.976 200.72 129.12C200.752 129.264 200.768 129.376 200.768 129.456C200.768 129.544 200.76 129.604 200.744 129.636C200.24 129.82 199.732 129.912 199.22 129.912C198.228 129.912 197.364 129.612 196.628 129.012C195.9 128.412 195.536 127.572 195.536 126.492C195.536 125.78 195.66 125.144 195.908 124.584C196.156 124.016 196.488 123.564 196.904 123.228ZM199.952 124.632C199.472 124.632 199.08 124.8 198.776 125.136C198.48 125.464 198.332 125.892 198.332 126.42C198.332 126.788 198.416 127.064 198.584 127.248C198.752 127.424 198.964 127.512 199.22 127.512C199.484 127.512 199.716 127.412 199.916 127.212C200.116 127.004 200.256 126.7 200.336 126.3L200.552 124.704C200.296 124.656 200.096 124.632 199.952 124.632ZM207.705 128.676C207.337 128.94 206.881 129.072 206.337 129.072C205.793 129.072 205.297 128.852 204.849 128.412C204.409 127.972 204.189 127.392 204.189 126.672C204.189 125.624 204.497 124.788 205.113 124.164C205.729 123.54 206.509 123.228 207.453 123.228C207.477 123.228 207.501 123.228 207.525 123.228C207.917 123.228 208.285 123.296 208.629 123.432C208.885 123.296 209.145 123.228 209.409 123.228C209.681 123.228 209.885 123.268 210.021 123.348C209.709 125.844 209.537 127.224 209.505 127.488L209.445 127.98C209.653 127.98 209.809 127.976 209.913 127.968C210.241 127.944 210.557 127.788 210.861 127.5C211.165 127.204 211.401 126.764 211.569 126.18C211.825 126.5 211.977 126.732 212.025 126.876C211.825 127.532 211.533 128.036 211.149 128.388C210.773 128.732 210.369 128.944 209.937 129.024C210.481 129.664 210.753 130.272 210.753 130.848C210.753 130.872 210.753 130.896 210.753 130.92C210.753 131.232 210.697 131.508 210.585 131.748C210.481 131.996 210.337 132.18 210.153 132.3C209.801 132.532 209.457 132.648 209.121 132.648C208.529 132.648 208.085 132.464 207.789 132.096C207.565 131.8 207.453 131.42 207.453 130.956C207.453 130.828 207.461 130.696 207.477 130.56L207.705 128.676ZM207.633 124.164C207.121 124.164 206.713 124.36 206.409 124.752C206.113 125.136 205.937 125.712 205.881 126.48C205.873 126.552 205.869 126.62 205.869 126.684C205.869 127.076 205.961 127.388 206.145 127.62C206.337 127.852 206.581 127.968 206.877 127.968C207.325 127.968 207.677 127.684 207.933 127.116L208.257 124.284C208.041 124.204 207.833 124.164 207.633 124.164ZM209.265 129.276C209.137 130.292 209.073 130.876 209.073 131.028C209.073 131.188 209.121 131.312 209.217 131.4C209.313 131.496 209.425 131.544 209.553 131.544C209.689 131.544 209.809 131.488 209.913 131.376C210.017 131.272 210.069 131.116 210.069 130.908C210.069 130.356 209.801 129.812 209.265 129.276ZM214.584 128.676C214.216 128.94 213.76 129.072 213.216 129.072C212.672 129.072 212.176 128.852 211.728 128.412C211.288 127.972 211.068 127.392 211.068 126.672C211.068 125.624 211.376 124.788 211.992 124.164C212.608 123.54 213.388 123.228 214.332 123.228C214.356 123.228 214.38 123.228 214.404 123.228C214.796 123.228 215.164 123.296 215.508 123.432C215.764 123.296 216.024 123.228 216.288 123.228C216.56 123.228 216.764 123.268 216.9 123.348C216.588 125.844 216.416 127.224 216.384 127.488L216.324 127.98C216.532 127.98 216.688 127.976 216.792 127.968C217.12 127.944 217.436 127.788 217.74 127.5C218.044 127.204 218.28 126.764 218.448 126.18C218.704 126.5 218.856 126.732 218.904 126.876C218.704 127.532 218.412 128.036 218.028 128.388C217.652 128.732 217.248 128.944 216.816 129.024C217.36 129.664 217.632 130.272 217.632 130.848C217.632 130.872 217.632 130.896 217.632 130.92C217.632 131.232 217.576 131.508 217.464 131.748C217.36 131.996 217.216 132.18 217.032 132.3C216.68 132.532 216.336 132.648 216 132.648C215.408 132.648 214.964 132.464 214.668 132.096C214.444 131.8 214.332 131.42 214.332 130.956C214.332 130.828 214.34 130.696 214.356 130.56L214.584 128.676ZM214.512 124.164C214 124.164 213.592 124.36 213.288 124.752C212.992 125.136 212.816 125.712 212.76 126.48C212.752 126.552 212.748 126.62 212.748 126.684C212.748 127.076 212.84 127.388 213.024 127.62C213.216 127.852 213.46 127.968 213.756 127.968C214.204 127.968 214.556 127.684 214.812 127.116L215.136 124.284C214.92 124.204 214.712 124.164 214.512 124.164ZM216.144 129.276C216.016 130.292 215.952 130.876 215.952 131.028C215.952 131.188 216 131.312 216.096 131.4C216.192 131.496 216.304 131.544 216.432 131.544C216.568 131.544 216.688 131.488 216.792 131.376C216.896 131.272 216.948 131.116 216.948 130.908C216.948 130.356 216.68 129.812 216.144 129.276ZM219.183 127.56C219.375 127.368 219.607 127.272 219.879 127.272C220.151 127.272 220.383 127.368 220.575 127.56C220.767 127.752 220.863 127.984 220.863 128.256C220.863 128.528 220.767 128.76 220.575 128.952C220.383 129.136 220.151 129.228 219.879 129.228C219.607 129.228 219.375 129.136 219.183 128.952C218.999 128.76 218.907 128.528 218.907 128.256C218.907 127.984 218.999 127.752 219.183 127.56ZM226.218 124.932C226.218 124.412 225.986 124.152 225.522 124.152C225.178 124.152 224.87 124.348 224.598 124.74C224.31 125.164 224.166 125.66 224.166 126.228C224.166 126.796 224.29 127.236 224.538 127.548C224.794 127.852 225.142 128.004 225.582 128.004C226.11 128.004 226.666 127.788 227.25 127.356C227.842 126.924 228.318 126.388 228.678 125.748C228.838 125.868 228.994 126.088 229.146 126.408C228.914 126.872 228.482 127.392 227.85 127.968C227.522 128.272 227.114 128.528 226.626 128.736C226.098 128.96 225.57 129.072 225.042 129.072C224.33 129.072 223.726 128.828 223.23 128.34C222.742 127.852 222.498 127.216 222.498 126.432C222.498 125.48 222.818 124.708 223.458 124.116C224.098 123.524 224.814 123.228 225.606 123.228C226.222 123.228 226.71 123.356 227.07 123.612C227.43 123.868 227.61 124.204 227.61 124.62C227.61 124.892 227.514 125.128 227.322 125.328C226.97 125.68 226.542 125.856 226.038 125.856C226.158 125.456 226.218 125.148 226.218 124.932ZM231.231 123.228C231.967 123.228 232.579 123.464 233.067 123.936C233.563 124.408 233.811 124.984 233.811 125.664C233.811 126.696 233.507 127.524 232.899 128.148C232.299 128.764 231.571 129.072 230.715 129.072C229.859 129.072 229.179 128.828 228.675 128.34C228.179 127.852 227.931 127.248 227.931 126.528C227.931 125.52 228.239 124.72 228.855 124.128C229.479 123.528 230.271 123.228 231.231 123.228ZM230.991 124.2C230.615 124.2 230.299 124.416 230.043 124.848C229.787 125.28 229.647 125.824 229.623 126.48C229.623 126.944 229.715 127.328 229.899 127.632C230.091 127.936 230.379 128.088 230.763 128.088C231.147 128.088 231.467 127.876 231.723 127.452C231.987 127.028 232.119 126.544 232.119 126C232.119 125.456 232.027 125.024 231.843 124.704C231.659 124.368 231.375 124.2 230.991 124.2ZM237.706 129L238.162 125.016C238.162 124.792 238.106 124.608 237.994 124.464C237.89 124.312 237.702 124.236 237.43 124.236C237.158 124.236 236.934 124.368 236.758 124.632C236.582 124.888 236.47 125.16 236.422 125.448C236.142 127.44 235.986 128.624 235.954 129H234.346L235.006 123.36C235.342 123.272 235.598 123.228 235.774 123.228C236.278 123.228 236.554 123.396 236.602 123.732C236.994 123.396 237.422 123.228 237.886 123.228C238.814 123.228 239.406 123.504 239.662 124.056C240.054 123.496 240.614 123.216 241.342 123.216C241.878 123.216 242.302 123.356 242.614 123.636C242.926 123.908 243.082 124.252 243.082 124.668C243.082 124.788 243.058 125 243.01 125.304C242.826 126.504 242.734 127.208 242.734 127.416C242.734 127.792 242.858 127.98 243.106 127.98C243.314 127.98 243.534 127.844 243.766 127.572C244.006 127.292 244.198 126.864 244.342 126.288C244.614 126.576 244.778 126.804 244.834 126.972C244.418 128.364 243.682 129.06 242.626 129.06C242.13 129.06 241.762 128.908 241.522 128.604C241.282 128.3 241.162 127.98 241.162 127.644L241.45 124.992C241.45 124.776 241.394 124.596 241.282 124.452C241.17 124.308 240.99 124.236 240.742 124.236C240.502 124.236 240.29 124.328 240.106 124.512C239.922 124.696 239.794 124.932 239.722 125.22C239.482 127.252 239.326 128.512 239.254 129H237.706Z" fill="#214257"/>
</g>
<defs>
<filter id="filter0_d_0_1" x="5.58" y="45.332" width="237.928" height="34.208" filterUnits="userSpaceOnUse" color-interpolation-filters="sRGB">
<feFlood flood-opacity="0" result="BackgroundImageFix"/>
<feColorMatrix in="SourceAlpha" type="matrix" values="0 0 0 0 0 0 0 0 0 0 0 0 0 0 0 0 0 0 127 0" result="hardAlpha"/>
<feOffset dy="4"/>
<feGaussianBlur stdDeviation="2"/>
<feComposite in2="hardAlpha" operator="out"/>
<feColorMatrix type="matrix" values="0 0 0 0 0 0 0 0 0 0 0 0 0 0 0 0 0 0 0.25 0"/>
<feBlend mode="normal" in2="BackgroundImageFix" result="effect1_dropShadow_0_1"/>
<feBlend mode="normal" in="SourceGraphic" in2="effect1_dropShadow_0_1" result="shape"/>
</filter>
<filter id="filter1_d_0_1" x="142.18" y="119.82" width="106.654" height="20.852" filterUnits="userSpaceOnUse" color-interpolation-filters="sRGB">
<feFlood flood-opacity="0" result="BackgroundImageFix"/>
<feColorMatrix in="SourceAlpha" type="matrix" values="0 0 0 0 0 0 0 0 0 0 0 0 0 0 0 0 0 0 127 0" result="hardAlpha"/>
<feOffset dy="4"/>
<feGaussianBlur stdDeviation="2"/>
<feComposite in2="hardAlpha" operator="out"/>
<feColorMatrix type="matrix" values="0 0 0 0 0 0 0 0 0 0 0 0 0 0 0 0 0 0 0.25 0"/>
<feBlend mode="normal" in2="BackgroundImageFix" result="effect1_dropShadow_0_1"/>
<feBlend mode="normal" in="SourceGraphic" in2="effect1_dropShadow_0_1" result="shape"/>
</filter>
</defs>
</svg>
