<svg width="252" height="142" viewBox="0 0 252 142" fill="none" xmlns="http://www.w3.org/2000/svg">
<rect width="252" height="142" fill="#FAF8F8"/>
<rect width="252" height="142" fill="#FAF8F8"/>
<g filter="url(#filter0_d_0_1)">
<path d="M48.424 53.648C40.264 57.68 36.184 61.64 36.184 65.528C36.184 66.68 36.652 67.712 37.588 68.624C38.548 69.536 40.192 69.992 42.52 69.992C45.808 69.992 48.508 69.104 50.62 67.328C52.756 65.552 53.824 63.704 53.824 61.784C53.824 60.92 53.632 60.08 53.248 59.264C52.864 58.424 52.456 57.764 52.024 57.284C51.592 56.804 50.968 56.18 50.152 55.412C49.36 54.644 48.784 54.056 48.424 53.648ZM55.408 47.816L56.128 47.96C56.752 47.96 57.448 47.408 58.216 46.304C58.984 45.2 59.368 44.204 59.368 43.316C59.368 42.428 59.116 41.696 58.612 41.12C58.108 40.544 57.256 40.256 56.056 40.256C54.256 40.256 52.516 41 50.836 42.488C49.18 43.952 48.352 45.464 48.352 47.024C48.352 47.936 48.544 48.728 48.928 49.4C49.312 50.072 49.888 50.768 50.656 51.488C51.424 51.272 52.732 50.768 54.58 49.976C56.452 49.16 57.436 48.752 57.532 48.752C57.652 48.752 57.712 48.776 57.712 48.824C57.712 49.016 55.528 50.072 51.16 51.992C51.28 52.112 51.652 52.484 52.276 53.108C52.9 53.708 53.368 54.188 53.68 54.548C54.016 54.908 54.4 55.388 54.832 55.988C55.696 57.164 56.128 58.376 56.128 59.624C56.128 61.304 55.42 63.092 54.004 64.988C52.588 66.884 50.668 68.504 48.244 69.848C45.82 71.192 43.384 71.864 40.936 71.864C38.512 71.864 36.58 71.336 35.14 70.28C33.724 69.224 33.016 67.88 33.016 66.248C33.016 64.712 33.52 63.188 34.528 61.676C35.2 60.668 36.496 59.468 38.416 58.076C39.52 57.26 40.744 56.516 42.088 55.844C43.432 55.172 44.656 54.572 45.76 54.044C46.864 53.516 47.584 53.168 47.92 53C47.872 52.928 47.728 52.76 47.488 52.496C47.272 52.232 47.116 52.028 47.02 51.884C46.924 51.74 46.78 51.524 46.588 51.236C46.42 50.948 46.288 50.684 46.192 50.444C45.952 49.844 45.832 49.208 45.832 48.536C45.832 47.336 46.288 46.148 47.2 44.972C48.112 43.772 49.216 42.752 50.512 41.912C51.832 41.072 53.188 40.4 54.58 39.896C55.972 39.368 57.244 39.104 58.396 39.104C59.548 39.104 60.52 39.38 61.312 39.932C62.128 40.484 62.536 41.216 62.536 42.128C62.536 43.664 61.72 45.104 60.088 46.448C58.456 47.792 56.92 48.464 55.48 48.464C55.144 48.464 54.976 48.344 54.976 48.104C54.976 47.912 55.12 47.816 55.408 47.816ZM90.4776 41.912C90.4776 42.152 90.2256 42.524 89.7216 43.028C89.2416 43.532 88.9296 43.904 88.7856 44.144C88.6416 44.384 88.4976 44.504 88.3536 44.504C88.2336 44.504 88.1736 44.408 88.1736 44.216C88.1736 43.4 87.6216 42.608 86.5176 41.84C85.4136 41.072 84.2376 40.688 82.9896 40.688C80.5896 40.688 78.2856 41.336 76.0776 42.632C72.6936 44.84 69.8256 47.756 67.4736 51.38C65.1456 54.98 63.9816 58.784 63.9816 62.792C63.9816 65 64.6656 66.872 66.0336 68.408C67.4016 69.944 69.1176 70.712 71.1816 70.712C74.6376 70.712 77.3256 70.016 79.2456 68.624C81.1896 67.208 82.5096 65.408 83.2056 63.224C83.3736 62.648 83.5176 62.36 83.6376 62.36C83.8776 62.36 84.1296 62.576 84.3936 63.008C84.6576 63.416 84.7896 63.764 84.7896 64.052C84.7896 64.34 84.5976 64.784 84.2136 65.384C83.8296 65.984 83.2176 66.656 82.3776 67.4C81.5376 68.144 80.5536 68.852 79.4256 69.524C78.3216 70.172 76.9296 70.724 75.2496 71.18C73.5696 71.636 71.8056 71.864 69.9576 71.864C67.2456 71.864 64.9896 70.988 63.1896 69.236C61.4136 67.46 60.5256 65.24 60.5256 62.576C60.5256 58.832 61.9776 55.04 64.8816 51.2C67.8096 47.336 71.3736 44.216 75.5736 41.84C78.7416 40.016 81.9816 39.104 85.2936 39.104C87.1896 39.104 88.6656 39.656 89.7216 40.76C90.2256 41.288 90.4776 41.672 90.4776 41.912ZM101.362 64.952C103.81 62.504 105.034 60.872 105.034 60.056C105.034 59.864 104.938 59.768 104.746 59.768C104.266 59.768 103.138 61.496 101.362 64.952ZM100.642 55.232C99.1303 55.232 97.5823 55.904 95.9983 57.248C94.4383 58.592 93.1783 60.2 92.2183 62.072C91.2583 63.944 90.7783 65.696 90.7783 67.328C90.7783 68.96 91.4503 69.776 92.7943 69.776C94.2823 69.776 95.9383 69.104 97.7623 67.76C98.2663 65.984 99.2983 64.04 100.858 61.928C102.298 59.888 103.498 58.688 104.458 58.328C103.642 56.264 102.37 55.232 100.642 55.232ZM100.498 54.368C102.802 54.368 104.314 55.64 105.034 58.184C105.658 58.184 105.97 58.448 105.97 58.976C105.97 59.624 105.862 60.164 105.646 60.596C105.43 61.004 105.262 61.316 105.142 61.532C105.046 61.724 104.866 61.976 104.602 62.288C104.314 62.6 104.122 62.816 104.026 62.936C103.042 64.04 102.01 65.072 100.93 66.032C100.546 67.28 100.354 68.12 100.354 68.552C100.354 69.56 101.158 70.064 102.766 70.064C104.374 70.064 106.366 69.104 108.742 67.184C111.142 65.264 112.834 63.56 113.818 62.072C113.914 61.928 114.01 61.856 114.106 61.856C114.202 61.856 114.25 61.892 114.25 61.964C114.25 62.036 114.226 62.12 114.178 62.216C112.882 63.944 111.586 65.372 110.29 66.5C109.018 67.628 107.446 68.732 105.574 69.812C103.726 70.892 102.034 71.432 100.498 71.432C98.5783 71.432 97.6183 70.664 97.6183 69.128C97.6183 69.056 97.6303 68.948 97.6543 68.804C97.6783 68.66 97.6903 68.552 97.6903 68.48C94.9783 70.16 92.7463 71 90.9943 71C88.9783 71 87.9703 69.776 87.9703 67.328C87.9703 65.552 88.5943 63.656 89.8423 61.64C91.1143 59.6 92.7343 57.884 94.7023 56.492C96.6943 55.076 98.6263 54.368 100.498 54.368ZM112.173 56.888C112.125 56.888 112.101 56.84 112.101 56.744C112.101 56.648 112.161 56.552 112.281 56.456C112.641 56.216 113.001 55.964 113.361 55.7C113.745 55.436 115.245 55.088 117.861 54.656L123.693 43.856C123.981 43.256 124.389 42.716 124.917 42.236C125.397 41.732 125.877 41.48 126.357 41.48C126.381 41.48 126.417 41.48 126.465 41.48C126.873 41.48 127.077 41.576 127.077 41.768C127.077 41.96 126.477 43.076 125.277 45.116C124.077 47.156 122.421 50.216 120.309 54.296L127.077 53.216C127.221 53.216 127.293 53.24 127.293 53.288C127.293 53.432 127.113 53.612 126.753 53.828C126.417 54.044 126.153 54.152 125.961 54.152C125.769 54.152 123.741 54.464 119.877 55.088L116.421 62.288C115.125 65.168 114.477 67.04 114.477 67.904C114.477 68.768 114.729 69.476 115.233 70.028C115.737 70.58 116.373 70.856 117.141 70.856C119.013 70.856 120.549 70.52 121.749 69.848C122.973 69.176 124.245 68.252 125.565 67.076C126.909 65.9 127.989 64.856 128.805 63.944C129.645 63.008 130.137 62.432 130.281 62.216C130.449 61.976 130.581 61.856 130.677 61.856C130.773 61.856 130.821 61.892 130.821 61.964C130.821 62.036 130.797 62.12 130.749 62.216C129.597 63.728 128.397 65.084 127.149 66.284C125.901 67.46 124.809 68.396 123.873 69.092C122.961 69.788 121.809 70.388 120.417 70.892C119.049 71.396 117.657 71.648 116.241 71.648C114.849 71.648 113.745 71.336 112.929 70.712C112.137 70.088 111.741 69.104 111.741 67.76C111.741 66.416 112.437 64.52 113.829 62.072L117.285 55.664C114.261 56.264 112.665 56.624 112.497 56.744C112.353 56.84 112.245 56.888 112.173 56.888ZM128.372 69.992C128.372 69.2 128.696 68.456 129.344 67.76C129.992 67.04 130.724 66.68 131.54 66.68C132.356 66.68 132.764 67.112 132.764 67.976C132.764 68.696 132.404 69.428 131.684 70.172C130.988 70.916 130.364 71.288 129.812 71.288C128.852 71.288 128.372 70.856 128.372 69.992ZM151.567 47.672C153.535 46.04 155.251 44.564 156.715 43.244C158.203 41.9 159.775 40.328 161.431 38.528C163.111 36.728 164.491 35.036 165.571 33.452C166.651 31.844 167.551 30.104 168.271 28.232C168.991 26.336 169.351 24.512 169.351 22.76C169.351 22.352 169.267 22.016 169.099 21.752C168.931 21.464 168.703 21.32 168.415 21.32C167.335 21.32 165.727 22.868 163.591 25.964C161.455 29.036 159.199 32.864 156.823 37.448L151.567 47.672ZM147.463 51.632C145.039 53.384 143.383 54.608 142.495 55.304C141.151 56.36 140.431 56.888 140.335 56.888C140.239 56.888 140.191 56.84 140.191 56.744C140.191 56.648 140.263 56.552 140.407 56.456C143.335 54.344 145.855 52.424 147.967 50.696L154.231 38.816C154.495 38.312 155.023 37.268 155.815 35.684C156.631 34.076 157.207 32.948 157.543 32.3C157.879 31.652 158.443 30.68 159.235 29.384C160.027 28.088 160.735 27.068 161.359 26.324C163.039 24.26 164.767 22.64 166.543 21.464C168.199 20.216 169.687 19.592 171.007 19.592C171.439 19.592 171.751 19.772 171.943 20.132C172.135 20.492 172.231 20.84 172.231 21.176C172.231 25.16 170.443 29.372 166.867 33.812C165.667 35.3 164.527 36.62 163.447 37.772C162.391 38.924 161.047 40.232 159.415 41.696C157.399 43.52 154.591 45.896 150.991 48.824L146.095 58.4C145.231 60.128 144.559 61.472 144.079 62.432C143.623 63.368 143.155 64.46 142.675 65.708C142.219 66.956 141.991 67.892 141.991 68.516C141.991 69.14 142.183 69.68 142.567 70.136C142.951 70.568 143.455 70.784 144.079 70.784C145.591 70.784 147.271 70.292 149.119 69.308C150.967 68.324 152.671 67.16 154.231 65.816C155.791 64.448 156.943 63.2 157.687 62.072C157.783 61.928 157.879 61.856 157.975 61.856C158.071 61.856 158.119 61.892 158.119 61.964C158.119 62.036 158.095 62.12 158.047 62.216C156.751 63.944 155.455 65.372 154.159 66.5C152.887 67.628 151.531 68.612 150.091 69.452C148.651 70.292 147.259 70.892 145.915 71.252C144.595 71.612 143.443 71.792 142.459 71.792C141.475 71.792 140.695 71.528 140.119 71C139.543 70.496 139.255 69.86 139.255 69.092C139.255 68.324 139.375 67.58 139.615 66.86C139.879 66.116 140.131 65.492 140.371 64.988C140.635 64.484 141.151 63.512 141.919 62.072L147.463 51.632ZM156.375 56.672C156.159 56.816 156.015 56.888 155.943 56.888C155.895 56.888 155.871 56.84 155.871 56.744C155.871 56.648 155.943 56.552 156.087 56.456C157.623 55.4 158.943 54.872 160.047 54.872C161.679 54.872 162.495 55.616 162.495 57.104C162.495 57.632 162.087 58.616 161.271 60.056C160.455 61.472 159.639 62.96 158.823 64.52C158.007 66.08 157.599 67.304 157.599 68.192C157.599 69.44 158.439 70.064 160.119 70.064C160.935 70.064 162.003 69.68 163.323 68.912C164.667 68.144 165.843 67.34 166.851 66.5C167.859 65.66 168.747 64.82 169.515 63.98C170.283 63.14 170.751 62.576 170.919 62.288C171.111 62 171.255 61.856 171.351 61.856C171.447 61.856 171.495 61.892 171.495 61.964C171.495 62.036 171.471 62.12 171.423 62.216C170.247 63.8 168.951 65.216 167.535 66.464C165.999 67.928 164.319 69.104 162.495 69.992C160.671 70.856 159.219 71.288 158.139 71.288C157.059 71.288 156.219 71.048 155.619 70.568C155.019 70.088 154.719 69.368 154.719 68.408C154.719 67.448 155.163 66.152 156.051 64.52C156.939 62.888 157.827 61.376 158.715 59.984C159.603 58.568 160.047 57.632 160.047 57.176C160.047 56.696 159.939 56.324 159.723 56.06C159.531 55.796 159.279 55.664 158.967 55.664C158.247 55.664 157.383 56 156.375 56.672ZM164.439 47.024C164.439 46.496 164.679 45.944 165.159 45.368C165.591 44.792 166.023 44.504 166.455 44.504C166.887 44.504 167.211 44.636 167.427 44.9C167.643 45.14 167.751 45.488 167.751 45.944C167.751 46.4 167.535 46.916 167.103 47.492C166.671 48.044 166.167 48.32 165.591 48.32C164.823 48.32 164.439 47.888 164.439 47.024ZM167.752 68.624C155.368 77.744 146.68 85.256 141.688 91.16C140.08 93.08 138.892 94.616 138.124 95.768C137.356 96.944 136.756 98.096 136.324 99.224C135.892 100.376 135.652 101.18 135.604 101.636C135.532 102.116 135.496 102.656 135.496 103.256C135.496 103.88 135.556 104.636 135.676 105.524C135.796 106.412 135.988 107.384 136.252 108.44C136.492 109.52 136.888 110.42 137.44 111.14C137.992 111.884 138.64 112.256 139.384 112.256C140.416 112.256 141.928 111.5 143.92 109.988C145.888 108.5 147.328 107.024 148.24 105.56C150.232 102.464 153.484 96.428 157.996 87.452C162.484 78.476 165.736 72.2 167.752 68.624ZM183.952 56.456C184.168 56.312 184.3 56.24 184.348 56.24C184.42 56.24 184.456 56.288 184.456 56.384C184.456 56.48 184.384 56.576 184.24 56.672C182.656 57.656 178.6 60.536 172.072 65.312C158.296 90.896 150.544 104.72 148.816 106.784C147.088 108.872 145.048 110.6 142.696 111.968C140.32 113.36 138.688 114.056 137.8 114.056C136.888 114.056 136.12 113.672 135.496 112.904C134.848 112.184 134.368 111.224 134.056 110.024C133.48 107.84 133.192 105.536 133.192 103.112C133.192 100.472 134.344 97.592 136.648 94.472C137.8 92.936 139.024 91.436 140.32 89.972C141.592 88.532 143.164 86.984 145.036 85.328C146.884 83.672 148.564 82.208 150.076 80.936C151.564 79.664 153.352 78.236 155.44 76.652C157.504 75.092 159.16 73.856 160.408 72.944C161.632 72.056 163.168 70.964 165.016 69.668C166.84 68.348 168.016 67.496 168.544 67.112C170.488 63.056 174.016 56.216 179.128 46.592C184.24 36.944 188.032 30.272 190.504 26.576C192.976 22.88 195.172 20.312 197.092 18.872C199.012 17.432 201.088 16.712 203.32 16.712C204.088 16.712 204.736 16.976 205.264 17.504C206.08 18.368 206.488 19.328 206.488 20.384C206.488 21.44 206.368 22.304 206.128 22.976C205.888 23.624 205.48 24.416 204.904 25.352C204.712 25.736 204.244 26.096 203.5 26.432C203.092 26.6 202.816 26.684 202.672 26.684C202.6 26.684 202.564 26.66 202.564 26.612C202.564 26.588 202.576 26.552 202.6 26.504C203.152 25.616 203.524 24.86 203.716 24.236C203.932 23.588 204.04 22.784 204.04 21.824C204.04 20.864 203.752 20.012 203.176 19.268C202.6 18.524 201.916 18.152 201.124 18.152C200.356 18.152 199.612 18.308 198.892 18.62C198.196 18.932 197.416 19.544 196.552 20.456C195.712 21.344 194.884 22.364 194.068 23.516C193.276 24.644 192.28 26.276 191.08 28.412C188.8 32.42 186.064 37.568 182.872 43.856L172.648 64.16L183.952 56.456ZM181.878 66.392L180.438 67.544C180.39 67.544 180.366 67.496 180.366 67.4C180.366 67.304 180.45 67.172 180.618 67.004C180.786 66.836 181.254 66.464 182.022 65.888C182.574 64.16 183.402 62.528 184.506 60.992C185.61 59.456 186.738 58.22 187.89 57.284C189.042 56.324 190.134 55.58 191.166 55.052C192.198 54.5 193.014 54.224 193.614 54.224C194.862 54.224 195.486 54.704 195.486 55.664C195.486 56.024 195.354 56.396 195.09 56.78C194.826 57.14 194.334 57.596 193.614 58.148C192.918 58.7 192.246 59.204 191.598 59.66C190.974 60.092 189.966 60.776 188.574 61.712C187.206 62.648 186.03 63.464 185.046 64.16C184.614 65.384 184.398 66.524 184.398 67.58C184.398 68.612 184.674 69.38 185.226 69.884C185.802 70.388 186.75 70.64 188.07 70.64C189.414 70.64 190.95 70.172 192.678 69.236C194.43 68.3 196.086 67.16 197.646 65.816C199.206 64.448 200.358 63.2 201.102 62.072C201.198 61.928 201.294 61.856 201.39 61.856C201.486 61.856 201.534 61.892 201.534 61.964C201.534 62.036 201.51 62.12 201.462 62.216C198.798 65.672 195.582 68.36 191.814 70.28C189.99 71.144 188.214 71.576 186.486 71.576C183.222 71.576 181.59 70.448 181.59 68.192C181.59 67.856 181.686 67.256 181.878 66.392ZM185.334 63.512C188.166 61.472 190.182 59.9 191.382 58.796C192.582 57.668 193.182 56.792 193.182 56.168C193.182 55.544 192.918 55.232 192.39 55.232C191.214 55.232 189.954 56.084 188.61 57.788C187.266 59.468 186.174 61.376 185.334 63.512Z" fill="#214257"/>
</g>
<g filter="url(#filter1_d_0_1)">
<path d="M149.672 127.632L149.96 124.98C149.96 124.764 149.904 124.584 149.792 124.44C149.68 124.296 149.5 124.224 149.252 124.224C149.004 124.224 148.792 124.324 148.616 124.524C148.448 124.716 148.324 124.972 148.244 125.292C148.188 125.748 148.104 126.416 147.992 127.296C147.88 128.168 147.808 128.736 147.776 129H146.18C146.756 124.096 147.104 121.084 147.224 119.964C147.392 119.9 147.62 119.868 147.908 119.868C148.532 119.868 148.844 120.052 148.844 120.42V120.492C148.708 121.748 148.564 122.852 148.412 123.804C148.836 123.42 149.316 123.228 149.852 123.228C150.388 123.228 150.812 123.364 151.124 123.636C151.436 123.908 151.592 124.252 151.592 124.668C151.592 124.78 151.568 124.988 151.52 125.292C151.336 126.492 151.244 127.196 151.244 127.404C151.244 127.78 151.368 127.968 151.616 127.968C151.824 127.968 152.044 127.832 152.276 127.56C152.516 127.28 152.708 126.852 152.852 126.276C153.124 126.564 153.288 126.792 153.344 126.96C152.928 128.352 152.192 129.048 151.136 129.048C150.64 129.048 150.272 128.896 150.032 128.592C149.792 128.288 149.672 127.968 149.672 127.632ZM157.713 123.348C157.385 125.94 157.221 127.32 157.221 127.488C157.221 127.808 157.337 127.968 157.569 127.968C157.777 127.968 158.001 127.828 158.241 127.548C158.489 127.26 158.685 126.832 158.829 126.264C159.093 126.552 159.253 126.776 159.309 126.936C159.125 127.712 158.833 128.26 158.433 128.58C158.033 128.9 157.621 129.06 157.197 129.06C156.501 129.06 156.033 128.792 155.793 128.256C155.377 128.792 154.821 129.06 154.125 129.06C153.549 129.06 153.105 128.916 152.793 128.628C152.481 128.34 152.325 127.964 152.325 127.5C152.325 127.388 152.345 127.192 152.385 126.912C152.569 125.424 152.709 124.24 152.805 123.36C153.053 123.272 153.281 123.228 153.489 123.228C153.697 123.228 153.853 123.236 153.957 123.252C154.061 123.268 154.161 123.328 154.257 123.432C154.353 123.536 154.401 123.684 154.401 123.876L154.005 126.936C153.989 127.032 153.981 127.12 153.981 127.2C153.981 127.672 154.197 127.908 154.629 127.908C155.029 127.908 155.361 127.712 155.625 127.32C155.625 127.232 155.633 127.092 155.649 126.9L156.045 123.708C156.101 123.572 156.221 123.46 156.405 123.372C156.589 123.276 156.817 123.228 157.089 123.228C157.369 123.228 157.577 123.268 157.713 123.348ZM160.051 129.084C159.563 129.084 159.179 128.948 158.899 128.676C158.619 128.396 158.479 128.016 158.479 127.536C158.479 127.408 158.695 125.508 159.127 121.836C159.239 120.892 159.539 120.296 160.027 120.048C160.251 119.928 160.519 119.868 160.831 119.868C161.887 119.868 162.415 120.356 162.415 121.332C162.415 121.412 162.411 121.496 162.403 121.584C162.323 122.656 161.651 123.748 160.387 124.86C160.347 125.252 160.303 125.632 160.255 126C160.159 126.824 160.111 127.28 160.111 127.368C160.111 127.784 160.291 127.992 160.651 127.992C161.043 127.992 161.407 127.768 161.743 127.32C162.087 126.864 162.351 126.284 162.535 125.58C162.607 125.604 162.707 125.672 162.835 125.784C162.963 125.888 163.051 125.98 163.099 126.06C162.971 126.724 162.683 127.36 162.235 127.968C162.011 128.28 161.727 128.536 161.383 128.736C160.991 128.968 160.547 129.084 160.051 129.084ZM160.519 123.66C161.255 122.852 161.623 122.128 161.623 121.488C161.623 121.104 161.479 120.912 161.191 120.912C161.007 120.928 160.883 121.048 160.819 121.272C160.763 121.496 160.707 121.86 160.651 122.364C160.603 122.868 160.571 123.18 160.555 123.3L160.519 123.66ZM164.043 120.168C164.227 119.976 164.451 119.88 164.715 119.88C164.979 119.88 165.203 119.976 165.387 120.168C165.579 120.352 165.675 120.576 165.675 120.84C165.675 121.104 165.579 121.328 165.387 121.512C165.203 121.696 164.979 121.788 164.715 121.788C164.451 121.788 164.227 121.696 164.043 121.512C163.859 121.328 163.767 121.104 163.767 120.84C163.767 120.576 163.859 120.352 164.043 120.168ZM162.375 132.672C161.999 132.672 161.667 132.552 161.379 132.312C161.083 132.08 160.935 131.676 160.935 131.1C160.935 129.948 161.631 128.92 163.023 128.016C163.079 127.536 163.247 126.092 163.527 123.684C163.767 123.388 164.143 123.24 164.655 123.24C164.943 123.24 165.139 123.268 165.243 123.324L164.307 130.584C164.227 131.28 164.031 131.8 163.719 132.144C163.415 132.496 162.967 132.672 162.375 132.672ZM161.703 130.98C161.703 131.196 161.747 131.36 161.835 131.472C161.923 131.592 162.035 131.652 162.171 131.652C162.427 131.652 162.591 131.388 162.663 130.86L162.915 128.94C162.107 129.58 161.703 130.26 161.703 130.98ZM171.071 129H165.515L165.683 127.704H167.603L168.347 122.232L166.139 122.364L166.271 121.284C167.743 120.908 168.619 120.436 168.899 119.868H170.363L169.343 127.704H171.215L171.071 129ZM175.185 129C174.113 129 173.321 128.632 172.809 127.896C172.297 127.16 172.033 126.188 172.017 124.98C172.017 124.78 172.025 124.616 172.041 124.488C172.161 123.04 172.553 121.908 173.217 121.092C173.881 120.276 174.773 119.868 175.893 119.868C175.909 119.868 175.921 119.868 175.929 119.868C176.841 119.884 177.577 120.232 178.137 120.912C178.697 121.592 178.989 122.584 179.013 123.888C179.013 124.968 178.805 125.944 178.389 126.816C178.053 127.496 177.601 128.032 177.033 128.424C176.473 128.808 175.857 129 175.185 129ZM177.105 123.552C177.105 121.864 176.681 121.02 175.833 121.02C175.257 121.02 174.809 121.356 174.489 122.028C174.177 122.7 173.977 123.724 173.889 125.1C173.921 126.14 174.029 126.844 174.213 127.212C174.293 127.38 174.417 127.528 174.585 127.656C174.761 127.8 174.973 127.872 175.221 127.872C175.709 127.872 176.121 127.564 176.457 126.948C176.801 126.324 177.013 125.404 177.093 124.188C177.101 123.964 177.105 123.752 177.105 123.552ZM185.251 129H179.695L179.863 127.704H181.783L182.527 122.232L180.319 122.364L180.451 121.284C181.923 120.908 182.799 120.436 183.079 119.868H184.543L183.523 127.704H185.395L185.251 129ZM189.412 125.724C188.476 125.724 187.776 125.424 187.312 124.824C186.912 124.288 186.712 123.668 186.712 122.964C186.712 122.892 186.72 122.776 186.736 122.616C186.84 121.736 187.172 121.052 187.732 120.564C188.3 120.068 189.02 119.82 189.892 119.82C190.372 119.82 190.8 119.896 191.176 120.048C191.56 120.2 191.872 120.4 192.112 120.648C192.36 120.896 192.564 121.188 192.724 121.524C193.02 122.148 193.168 122.852 193.168 123.636C193.168 123.876 193.156 124.104 193.132 124.32C192.988 125.792 192.556 126.94 191.836 127.764C191.124 128.58 190.124 128.996 188.836 129.012C188.388 129.012 187.98 128.96 187.612 128.856C187.244 128.744 186.968 128.632 186.784 128.52C186.608 128.408 186.412 128.256 186.196 128.064L187.072 126.948C187.312 127.252 187.576 127.476 187.864 127.62C188.152 127.764 188.512 127.836 188.944 127.836C190.32 127.836 191.108 126.568 191.308 124.032C191.332 123.6 191.344 123.356 191.344 123.3C191.344 121.732 190.896 120.948 190 120.948C189.576 120.948 189.236 121.112 188.98 121.44C188.684 121.832 188.536 122.336 188.536 122.952C188.536 123.36 188.66 123.74 188.908 124.092C189.164 124.444 189.568 124.62 190.12 124.62C190.256 124.62 190.44 124.588 190.672 124.524C190.912 124.46 191.052 124.404 191.092 124.356L190.996 125.232C190.556 125.56 190.028 125.724 189.412 125.724ZM195.615 123.228C196.031 122.892 196.487 122.636 196.983 122.46C197.479 122.284 197.975 122.196 198.471 122.196C198.967 122.196 199.431 122.264 199.863 122.4C200.303 122.528 200.711 122.724 201.087 122.988C201.471 123.244 201.779 123.6 202.011 124.056C202.243 124.504 202.359 125.02 202.359 125.604C202.359 126.428 202.175 127.104 201.807 127.632C201.447 128.16 200.987 128.424 200.427 128.424C199.763 128.424 199.379 128.068 199.275 127.356C199.123 127.684 198.911 127.952 198.639 128.16C198.367 128.36 198.051 128.46 197.691 128.46C197.139 128.46 196.703 128.284 196.383 127.932C196.071 127.572 195.915 127.092 195.915 126.492C195.915 125.892 196.103 125.312 196.479 124.752C196.663 124.472 196.927 124.244 197.271 124.068C197.623 123.892 198.007 123.804 198.423 123.804C198.847 123.804 199.247 123.864 199.623 123.984C199.759 123.936 199.911 123.912 200.079 123.912C200.255 123.912 200.411 123.952 200.547 124.032C200.291 125.744 200.163 126.796 200.163 127.188C200.163 127.484 200.303 127.632 200.583 127.632C200.831 127.632 201.039 127.456 201.207 127.104C201.375 126.744 201.459 126.272 201.459 125.688C201.459 124.848 201.195 124.196 200.667 123.732C200.147 123.268 199.415 123.036 198.471 123.036C197.535 123.036 196.751 123.328 196.119 123.912C195.487 124.496 195.171 125.328 195.171 126.408C195.171 127.192 195.443 127.844 195.987 128.364C196.531 128.876 197.199 129.132 197.991 129.132C198.359 129.132 198.619 129.108 198.771 129.06C198.931 129.012 199.059 128.972 199.155 128.94L199.335 128.88C199.367 128.896 199.399 128.976 199.431 129.12C199.463 129.264 199.479 129.376 199.479 129.456C199.479 129.544 199.471 129.604 199.455 129.636C198.951 129.82 198.443 129.912 197.931 129.912C196.939 129.912 196.075 129.612 195.339 129.012C194.611 128.412 194.247 127.572 194.247 126.492C194.247 125.78 194.371 125.144 194.619 124.584C194.867 124.016 195.199 123.564 195.615 123.228ZM198.663 124.632C198.183 124.632 197.791 124.8 197.487 125.136C197.191 125.464 197.043 125.892 197.043 126.42C197.043 126.788 197.127 127.064 197.295 127.248C197.463 127.424 197.675 127.512 197.931 127.512C198.195 127.512 198.427 127.412 198.627 127.212C198.827 127.004 198.967 126.7 199.047 126.3L199.263 124.704C199.007 124.656 198.807 124.632 198.663 124.632ZM206.416 128.676C206.048 128.94 205.592 129.072 205.048 129.072C204.504 129.072 204.008 128.852 203.56 128.412C203.12 127.972 202.9 127.392 202.9 126.672C202.9 125.624 203.208 124.788 203.824 124.164C204.44 123.54 205.22 123.228 206.164 123.228C206.188 123.228 206.212 123.228 206.236 123.228C206.628 123.228 206.996 123.296 207.34 123.432C207.596 123.296 207.856 123.228 208.12 123.228C208.392 123.228 208.596 123.268 208.732 123.348C208.42 125.844 208.248 127.224 208.216 127.488L208.156 127.98C208.364 127.98 208.52 127.976 208.624 127.968C208.952 127.944 209.268 127.788 209.572 127.5C209.876 127.204 210.112 126.764 210.28 126.18C210.536 126.5 210.688 126.732 210.736 126.876C210.536 127.532 210.244 128.036 209.86 128.388C209.484 128.732 209.08 128.944 208.648 129.024C209.192 129.664 209.464 130.272 209.464 130.848C209.464 130.872 209.464 130.896 209.464 130.92C209.464 131.232 209.408 131.508 209.296 131.748C209.192 131.996 209.048 132.18 208.864 132.3C208.512 132.532 208.168 132.648 207.832 132.648C207.24 132.648 206.796 132.464 206.5 132.096C206.276 131.8 206.164 131.42 206.164 130.956C206.164 130.828 206.172 130.696 206.188 130.56L206.416 128.676ZM206.344 124.164C205.832 124.164 205.424 124.36 205.12 124.752C204.824 125.136 204.648 125.712 204.592 126.48C204.584 126.552 204.58 126.62 204.58 126.684C204.58 127.076 204.672 127.388 204.856 127.62C205.048 127.852 205.292 127.968 205.588 127.968C206.036 127.968 206.388 127.684 206.644 127.116L206.968 124.284C206.752 124.204 206.544 124.164 206.344 124.164ZM207.976 129.276C207.848 130.292 207.784 130.876 207.784 131.028C207.784 131.188 207.832 131.312 207.928 131.4C208.024 131.496 208.136 131.544 208.264 131.544C208.4 131.544 208.52 131.488 208.624 131.376C208.728 131.272 208.78 131.116 208.78 130.908C208.78 130.356 208.512 129.812 207.976 129.276ZM213.295 128.676C212.927 128.94 212.471 129.072 211.927 129.072C211.383 129.072 210.887 128.852 210.439 128.412C209.999 127.972 209.779 127.392 209.779 126.672C209.779 125.624 210.087 124.788 210.703 124.164C211.319 123.54 212.099 123.228 213.043 123.228C213.067 123.228 213.091 123.228 213.115 123.228C213.507 123.228 213.875 123.296 214.219 123.432C214.475 123.296 214.735 123.228 214.999 123.228C215.271 123.228 215.475 123.268 215.611 123.348C215.299 125.844 215.127 127.224 215.095 127.488L215.035 127.98C215.243 127.98 215.399 127.976 215.503 127.968C215.831 127.944 216.147 127.788 216.451 127.5C216.755 127.204 216.991 126.764 217.159 126.18C217.415 126.5 217.567 126.732 217.615 126.876C217.415 127.532 217.123 128.036 216.739 128.388C216.363 128.732 215.959 128.944 215.527 129.024C216.071 129.664 216.343 130.272 216.343 130.848C216.343 130.872 216.343 130.896 216.343 130.92C216.343 131.232 216.287 131.508 216.175 131.748C216.071 131.996 215.927 132.18 215.743 132.3C215.391 132.532 215.047 132.648 214.711 132.648C214.119 132.648 213.675 132.464 213.379 132.096C213.155 131.8 213.043 131.42 213.043 130.956C213.043 130.828 213.051 130.696 213.067 130.56L213.295 128.676ZM213.223 124.164C212.711 124.164 212.303 124.36 211.999 124.752C211.703 125.136 211.527 125.712 211.471 126.48C211.463 126.552 211.459 126.62 211.459 126.684C211.459 127.076 211.551 127.388 211.735 127.62C211.927 127.852 212.171 127.968 212.467 127.968C212.915 127.968 213.267 127.684 213.523 127.116L213.847 124.284C213.631 124.204 213.423 124.164 213.223 124.164ZM214.855 129.276C214.727 130.292 214.663 130.876 214.663 131.028C214.663 131.188 214.711 131.312 214.807 131.4C214.903 131.496 215.015 131.544 215.143 131.544C215.279 131.544 215.399 131.488 215.503 131.376C215.607 131.272 215.659 131.116 215.659 130.908C215.659 130.356 215.391 129.812 214.855 129.276ZM217.894 127.56C218.086 127.368 218.318 127.272 218.59 127.272C218.862 127.272 219.094 127.368 219.286 127.56C219.478 127.752 219.574 127.984 219.574 128.256C219.574 128.528 219.478 128.76 219.286 128.952C219.094 129.136 218.862 129.228 218.59 129.228C218.318 129.228 218.086 129.136 217.894 128.952C217.71 128.76 217.618 128.528 217.618 128.256C217.618 127.984 217.71 127.752 217.894 127.56ZM224.929 124.932C224.929 124.412 224.697 124.152 224.233 124.152C223.889 124.152 223.581 124.348 223.309 124.74C223.021 125.164 222.877 125.66 222.877 126.228C222.877 126.796 223.001 127.236 223.249 127.548C223.505 127.852 223.853 128.004 224.293 128.004C224.821 128.004 225.377 127.788 225.961 127.356C226.553 126.924 227.029 126.388 227.389 125.748C227.549 125.868 227.705 126.088 227.857 126.408C227.625 126.872 227.193 127.392 226.561 127.968C226.233 128.272 225.825 128.528 225.337 128.736C224.809 128.96 224.281 129.072 223.753 129.072C223.041 129.072 222.437 128.828 221.941 128.34C221.453 127.852 221.209 127.216 221.209 126.432C221.209 125.48 221.529 124.708 222.169 124.116C222.809 123.524 223.525 123.228 224.317 123.228C224.933 123.228 225.421 123.356 225.781 123.612C226.141 123.868 226.321 124.204 226.321 124.62C226.321 124.892 226.225 125.128 226.033 125.328C225.681 125.68 225.253 125.856 224.749 125.856C224.869 125.456 224.929 125.148 224.929 124.932ZM229.942 123.228C230.678 123.228 231.29 123.464 231.778 123.936C232.274 124.408 232.522 124.984 232.522 125.664C232.522 126.696 232.218 127.524 231.61 128.148C231.01 128.764 230.282 129.072 229.426 129.072C228.57 129.072 227.89 128.828 227.386 128.34C226.89 127.852 226.642 127.248 226.642 126.528C226.642 125.52 226.95 124.72 227.566 124.128C228.19 123.528 228.982 123.228 229.942 123.228ZM229.702 124.2C229.326 124.2 229.01 124.416 228.754 124.848C228.498 125.28 228.358 125.824 228.334 126.48C228.334 126.944 228.426 127.328 228.61 127.632C228.802 127.936 229.09 128.088 229.474 128.088C229.858 128.088 230.178 127.876 230.434 127.452C230.698 127.028 230.83 126.544 230.83 126C230.83 125.456 230.738 125.024 230.554 124.704C230.37 124.368 230.086 124.2 229.702 124.2ZM236.417 129L236.873 125.016C236.873 124.792 236.817 124.608 236.705 124.464C236.601 124.312 236.413 124.236 236.141 124.236C235.869 124.236 235.645 124.368 235.469 124.632C235.293 124.888 235.181 125.16 235.133 125.448C234.853 127.44 234.697 128.624 234.665 129H233.057L233.717 123.36C234.053 123.272 234.309 123.228 234.485 123.228C234.989 123.228 235.265 123.396 235.313 123.732C235.705 123.396 236.133 123.228 236.597 123.228C237.525 123.228 238.117 123.504 238.373 124.056C238.765 123.496 239.325 123.216 240.053 123.216C240.589 123.216 241.013 123.356 241.325 123.636C241.637 123.908 241.793 124.252 241.793 124.668C241.793 124.788 241.769 125 241.721 125.304C241.537 126.504 241.445 127.208 241.445 127.416C241.445 127.792 241.569 127.98 241.817 127.98C242.025 127.98 242.245 127.844 242.477 127.572C242.717 127.292 242.909 126.864 243.053 126.288C243.325 126.576 243.489 126.804 243.545 126.972C243.129 128.364 242.393 129.06 241.337 129.06C240.841 129.06 240.473 128.908 240.233 128.604C239.993 128.3 239.873 127.98 239.873 127.644L240.161 124.992C240.161 124.776 240.105 124.596 239.993 124.452C239.881 124.308 239.701 124.236 239.453 124.236C239.213 124.236 239.001 124.328 238.817 124.512C238.633 124.696 238.505 124.932 238.433 125.22C238.193 127.252 238.037 128.512 237.965 129H236.417Z" fill="#214257"/>
</g>
<defs>
<filter id="filter0_d_0_1" x="29.016" y="16.712" width="181.472" height="105.344" filterUnits="userSpaceOnUse" color-interpolation-filters="sRGB">
<feFlood flood-opacity="0" result="BackgroundImageFix"/>
<feColorMatrix in="SourceAlpha" type="matrix" values="0 0 0 0 0 0 0 0 0 0 0 0 0 0 0 0 0 0 127 0" result="hardAlpha"/>
<feOffset dy="4"/>
<feGaussianBlur stdDeviation="2"/>
<feComposite in2="hardAlpha" operator="out"/>
<feColorMatrix type="matrix" values="0 0 0 0 0 0 0 0 0 0 0 0 0 0 0 0 0 0 0.25 0"/>
<feBlend mode="normal" in2="BackgroundImageFix" result="effect1_dropShadow_0_1"/>
<feBlend mode="normal" in="SourceGraphic" in2="effect1_dropShadow_0_1" result="shape"/>
</filter>
<filter id="filter1_d_0_1" x="142.18" y="119.82" width="105.365" height="20.852" filterUnits="userSpaceOnUse" color-interpolation-filters="sRGB">
<feFlood flood-opacity="0" result="BackgroundImageFix"/>
<feColorMatrix in="SourceAlpha" type="matrix" values="0 0 0 0 0 0 0 0 0 0 0 0 0 0 0 0 0 0 127 0" result="hardAlpha"/>
<feOffset dy="4"/>
<feGaussianBlur stdDeviation="2"/>
<feComposite in2="hardAlpha" operator="out"/>
<feColorMatrix type="matrix" values="0 0 0 0 0 0 0 0 0 0 0 0 0 0 0 0 0 0 0.25 0"/>
<feBlend mode="normal" in2="BackgroundImageFix" result="effect1_dropShadow_0_1"/>
<feBlend mode="normal" in="SourceGraphic" in2="effect1_dropShadow_0_1" result="shape"/>
</filter>
</defs>
</svg>
